HIERARCHY
ROOT Hips
{
    OFFSET   0.000000   0.000000   0.000000
    CHANNELS 6 Xposition Yposition Zposition Zrotation Xrotation Yrotation
    JOINT Chest
    {
        OFFSET   0.000000   8.007240   0.000000
        CHANNELS 3 Zrotation Xrotation Yrotation
        JOINT Chest2
        {
            OFFSET   0.000000  22.077100   0.000000
            CHANNELS 3 Zrotation Xrotation Yrotation
            JOINT Neck
            {
                OFFSET   0.000000  23.254800   0.000000
                CHANNELS 3 Zrotation Xrotation Yrotation
                JOINT Head
                {
                    OFFSET   0.000000  14.370000   1.956600
                    CHANNELS 3 Zrotation Xrotation Yrotation
                    End Site
                    {
                        OFFSET   0.000000  19.566000   0.000000
                    }
                }
            }
            JOINT LeftCollar
            {
                OFFSET   3.911900  19.017000  -0.467064
                CHANNELS 3 Zrotation Xrotation Yrotation
                JOINT LeftShoulder
                {
                    OFFSET  10.383700   0.000000   0.000000
                    CHANNELS 3 Zrotation Xrotation Yrotation
                    JOINT LeftElbow
                    {
                        OFFSET  26.662100   0.001476   0.000517
                        CHANNELS 3 Zrotation Xrotation Yrotation
                        JOINT LeftWrist
                        {
                            OFFSET  28.869000  -0.000025  -0.000106
                            CHANNELS 3 Zrotation Xrotation Yrotation
                            JOINT LeftFinger0
                            {
                                OFFSET   2.044660  -2.323460   3.252850
                                CHANNELS 3 Zrotation Xrotation Yrotation
                                JOINT LeftFinger01
                                {
                                    OFFSET   3.088130   0.000000   0.000000
                                    CHANNELS 3 Zrotation Xrotation Yrotation
                                    JOINT LeftFinger02
                                    {
                                        OFFSET   2.639460   0.000000   0.000000
                                        CHANNELS 3 Zrotation Xrotation Yrotation
                                        End Site
                                        {
                                            OFFSET   2.582190   0.000000   0.000000
                                        }
                                    }
                                }
                            }
                            JOINT LeftFinger1
                            {
                                OFFSET   8.364480   0.000000   3.252850
                                CHANNELS 3 Zrotation Xrotation Yrotation
                                JOINT LeftFinger11
                                {
                                    OFFSET   4.646930   0.000000   0.000000
                                    CHANNELS 3 Zrotation Xrotation Yrotation
                                    JOINT LeftFinger12
                                    {
                                        OFFSET   2.323460   0.000000   0.000000
                                        CHANNELS 3 Zrotation Xrotation Yrotation
                                        End Site
                                        {
                                            OFFSET   2.273050   0.000000   0.000000
                                        }
                                    }
                                }
                            }
                            JOINT LeftFinger2
                            {
                                OFFSET   8.364490   0.000015   1.078090
                                CHANNELS 3 Zrotation Xrotation Yrotation
                                JOINT LeftFinger21
                                {
                                    OFFSET   5.111620   0.000000   0.000000
                                    CHANNELS 3 Zrotation Xrotation Yrotation
                                    JOINT LeftFinger22
                                    {
                                        OFFSET   2.788160   0.000016   0.000000
                                        CHANNELS 3 Zrotation Xrotation Yrotation
                                        End Site
                                        {
                                            OFFSET   2.727660   0.000000   0.000000
                                        }
                                    }
                                }
                            }
                            JOINT LeftFinger3
                            {
                                OFFSET   7.899780   0.000017  -1.078090
                                CHANNELS 3 Zrotation Xrotation Yrotation
                                JOINT LeftFinger31
                                {
                                    OFFSET   4.646930   0.000000   0.000000
                                    CHANNELS 3 Zrotation Xrotation Yrotation
                                    JOINT LeftFinger32
                                    {
                                        OFFSET   2.323470   0.000000   0.000000
                                        CHANNELS 3 Zrotation Xrotation Yrotation
                                        End Site
                                        {
                                            OFFSET   2.273050   0.000000   0.000000
                                        }
                                    }
                                }
                            }
                            JOINT LeftFinger4
                            {
                                OFFSET   7.435090   0.000000  -3.252850
                                CHANNELS 3 Zrotation Xrotation Yrotation
                                JOINT LeftFinger41
                                {
                                    OFFSET   3.717550   0.000000   0.000000
                                    CHANNELS 3 Zrotation Xrotation Yrotation
                                    JOINT LeftFinger42
                                    {
                                        OFFSET   1.858770   0.000000   0.000000
                                        CHANNELS 3 Zrotation Xrotation Yrotation
                                        End Site
                                        {
                                            OFFSET   1.818440   0.000000   0.000000
                                        }
                                    }
                                }
                            }
                        }
                    }
                }
            }
            JOINT RightCollar
            {
                OFFSET  -3.911900  19.017000  -0.467063
                CHANNELS 3 Zrotation Xrotation Yrotation
                JOINT RightShoulder
                {
                    OFFSET -10.383700   0.000019   0.000000
                    CHANNELS 3 Zrotation Xrotation Yrotation
                    JOINT RightElbow
                    {
                        OFFSET -26.662100   0.001175   0.000102
                        CHANNELS 3 Zrotation Xrotation Yrotation
                        JOINT RightWrist
                        {
                            OFFSET -28.869000   0.000016  -0.000079
                            CHANNELS 3 Zrotation Xrotation Yrotation
                            JOINT RightFinger0
                            {
                                OFFSET  -2.044660  -2.323490   3.252850
                                CHANNELS 3 Zrotation Xrotation Yrotation
                                JOINT RightFinger01
                                {
                                    OFFSET  -3.088140   0.000000   0.000000
                                    CHANNELS 3 Zrotation Xrotation Yrotation
                                    JOINT RightFinger02
                                    {
                                        OFFSET  -2.639460   0.000000   0.000000
                                        CHANNELS 3 Zrotation Xrotation Yrotation
                                        End Site
                                        {
                                            OFFSET  -2.582190   0.000000   0.000000
                                        }
                                    }
                                }
                            }
                            JOINT RightFinger1
                            {
                                OFFSET  -8.364480   0.000000   3.252850
                                CHANNELS 3 Zrotation Xrotation Yrotation
                                JOINT RightFinger11
                                {
                                    OFFSET  -4.646930   0.000000   0.000000
                                    CHANNELS 3 Zrotation Xrotation Yrotation
                                    JOINT RightFinger12
                                    {
                                        OFFSET  -2.323470   0.000000   0.000000
                                        CHANNELS 3 Zrotation Xrotation Yrotation
                                        End Site
                                        {
                                            OFFSET  -2.273050   0.000000   0.000000
                                        }
                                    }
                                }
                            }
                            JOINT RightFinger2
                            {
                                OFFSET  -8.364480   0.000000   1.078090
                                CHANNELS 3 Zrotation Xrotation Yrotation
                                JOINT RightFinger21
                                {
                                    OFFSET  -5.111620   0.000000   0.000000
                                    CHANNELS 3 Zrotation Xrotation Yrotation
                                    JOINT RightFinger22
                                    {
                                        OFFSET  -2.788160   0.000000   0.000000
                                        CHANNELS 3 Zrotation Xrotation Yrotation
                                        End Site
                                        {
                                            OFFSET  -2.727660   0.000000   0.000000
                                        }
                                    }
                                }
                            }
                            JOINT RightFinger3
                            {
                                OFFSET  -7.899780   0.000000  -1.078090
                                CHANNELS 3 Zrotation Xrotation Yrotation
                                JOINT RightFinger31
                                {
                                    OFFSET  -4.646930   0.000000   0.000000
                                    CHANNELS 3 Zrotation Xrotation Yrotation
                                    JOINT RightFinger32
                                    {
                                        OFFSET  -2.323470   0.000000   0.000000
                                        CHANNELS 3 Zrotation Xrotation Yrotation
                                        End Site
                                        {
                                            OFFSET  -2.273050   0.000000   0.000000
                                        }
                                    }
                                }
                            }
                            JOINT RightFinger4
                            {
                                OFFSET  -7.435090   0.000000  -3.252850
                                CHANNELS 3 Zrotation Xrotation Yrotation
                                JOINT RightFinger41
                                {
                                    OFFSET  -3.717550   0.000000   0.000000
                                    CHANNELS 3 Zrotation Xrotation Yrotation
                                    JOINT RightFinger42
                                    {
                                        OFFSET  -1.858770   0.000000   0.000000
                                        CHANNELS 3 Zrotation Xrotation Yrotation
                                        End Site
                                        {
                                            OFFSET  -1.818440   0.000000   0.000000
                                        }
                                    }
                                }
                            }
                        }
                    }
                }
            }
        }
    }
    JOINT LeftHip
    {
        OFFSET   9.783040   0.000000   0.000000
        CHANNELS 3 Zrotation Xrotation Yrotation
        JOINT LeftKnee
        {
            OFFSET   0.000032 -41.789100  -0.002222
            CHANNELS 3 Zrotation Xrotation Yrotation
            JOINT LeftAnkle
            {
                OFFSET   0.000087 -41.133200  -0.000135
                CHANNELS 3 Zrotation Xrotation Yrotation
                JOINT LeftToe
                {
                    OFFSET   0.000000  -6.358960  14.674500
                    CHANNELS 3 Zrotation Xrotation Yrotation
                    End Site
                    {
                        OFFSET   0.000000   0.000000   3.913200
                    }
                }
            }
        }
    }
    JOINT RightHip
    {
        OFFSET  -9.783040   0.000000   0.000000
        CHANNELS 3 Zrotation Xrotation Yrotation
        JOINT RightKnee
        {
            OFFSET   0.000047 -41.789100  -0.000896
            CHANNELS 3 Zrotation Xrotation Yrotation
            JOINT RightAnkle
            {
                OFFSET  -0.000117 -41.133300  -0.000248
                CHANNELS 3 Zrotation Xrotation Yrotation
                JOINT RightToe
                {
                    OFFSET   0.000000  -6.358970  14.674500
                    CHANNELS 3 Zrotation Xrotation Yrotation
                    End Site
                    {
                        OFFSET   0.000000   0.000000   3.913200
                    }
                }
            }
        }
    }
}
MOTION
Frames: 4
Frame Time:   0.016667
-12.372800  87.951200  -7.376700  -4.458480 -15.751200  -1.018290   2.770460   8.226030  -1.759380   5.889410  16.351500  -3.985170   5.769030   0.337531  -0.034050   9.478870   0.663778  -2.335980  -9.092370   2.840380  -0.832678 -71.157300  14.499400  -9.281420  -1.523380  -3.315270 -14.152200   3.254590  -8.171620   2.549060  40.884200  36.273800 -57.525600 -33.749700  -0.000267  -0.000109 -11.874800  -0.001391  -0.003706 -40.663700   1.585760  -1.845110 -33.291300   0.000000  -0.000537 -23.487000   0.000239   0.005261 -29.711500  -2.037480   3.565030 -44.662400   0.000164  -0.000899 -29.745200   0.000556   0.007460 -30.712500  -3.217880   5.397920 -46.296500   0.001468  -0.001354 -30.833400   0.001331   0.000713 -43.133200  -4.304070   4.579950 -64.958200  -0.003736   0.000305 -43.262100  -0.001543  -0.003002   6.149990  -4.319860   6.943480  34.295900 -28.587900  40.134100 -29.994700 -40.770700  81.499700  33.606900 -23.105000  38.557800 -32.159600  35.850700  71.826400  47.810100  -0.001257  -0.002603  22.465200  -0.000507  -0.002623  88.996200   4.999190   0.087496  91.417400   0.000468  -0.000827  68.563100   0.001147  -0.000563  89.000000  -0.000936   0.002708 103.631000  -0.001856   0.000513  77.723000   0.000569   0.001753  88.996000  -4.999540  -0.089617  92.809400   0.001362   0.000994  69.607000   0.000353  -0.000762  88.989000 -10.003700  -0.175602 110.000000   0.000387   0.000905  80.001500   0.000381   0.000771  11.023100   9.998650  -0.272894   3.610850  22.725400  12.551000 -13.833100 -12.903700  -3.648520  -0.000000   0.000000   0.000000  11.629100  19.250800  -3.136830   0.595909   1.057840 -17.532000  -4.782020  -6.151070   1.955550   0.000000   0.000000   0.000000
-12.343800  87.961900  -7.323950  -4.448580 -15.694200  -1.076380   2.767260   8.213670  -1.770490   5.883760  16.326200  -4.006090   5.695880   0.176273  -0.017509   9.359230   0.346947  -2.016310  -9.111580   2.816180  -0.863488 -71.117500  14.591800  -9.370520  -1.503820  -3.395800 -14.083600   3.262720  -8.152970   2.526940  40.907400  36.316200 -57.575500 -33.749500  -0.000236  -0.000084 -11.874700  -0.001374  -0.003659 -40.673800   1.596750  -1.856820 -33.299700  -0.000038  -0.000545 -23.494600   0.000245   0.005246 -29.716800  -2.027880   3.547400 -44.669900   0.000133  -0.000851 -29.750200   0.000551   0.007446 -30.723800  -3.200720   5.366960 -46.310900   0.001466  -0.001371 -30.843100   0.001354   0.001478 -43.154400  -4.281420   4.552660 -64.987000  -0.003656   0.000271 -43.281300  -0.001476  -0.003006   6.148800  -4.352500   6.956060  34.219700 -28.468000  40.092100 -30.083500 -40.892900  81.418100  33.547800 -23.114600  38.576700 -32.135500  35.824700  71.791800  47.850100  -0.001295  -0.002540  22.509900  -0.000548  -0.002699  88.996200   4.999180   0.087496  91.418800   0.000434  -0.000786  68.564100   0.001114  -0.000576  89.000000  -0.000905   0.002821 103.616000  -0.001826   0.000522  77.711700   0.000568   0.001705  88.996000  -4.999520  -0.089617  92.809700   0.001423   0.000991  69.607200   0.000347  -0.000772  88.989100 -10.003700  -0.175592 110.000000   0.000397   0.000897  80.001400   0.000496   0.000708  10.990600  10.065800  -0.265287   3.578410  22.586900  12.633300 -13.827400 -12.865700  -3.639560  -0.000000   0.000000   0.000000  11.573200  19.215100  -3.135190   0.600647   1.088490 -17.530500  -4.756110  -6.178970   2.027310   0.000000   0.000000  -0.000000
-12.311000  87.975800  -7.272110  -4.440880 -15.647600  -1.132590   2.764290   8.203480  -1.785140   5.879380  16.305200  -4.035010   5.663530   0.062215  -0.006156   9.304200   0.122422  -1.698880  -9.129430   2.792640  -0.897138 -71.066700  14.706200  -9.469090  -1.487920  -3.476330 -14.017900   3.267600  -8.134960   2.493430  40.940800  36.364400 -57.632300 -33.747900  -0.000149   0.000000 -11.874000  -0.001320  -0.003607 -40.678500   1.615150  -1.878270 -33.304200  -0.000077  -0.000570 -23.498800   0.000286   0.005230 -29.720300  -2.015180   3.524910 -44.673600   0.000114  -0.000821 -29.752600   0.000548   0.007429 -30.735100  -3.179690   5.329550 -46.324900   0.001464  -0.001421 -30.852400   0.001425   0.002525 -43.175200  -4.253570   4.519950 -65.014800  -0.003576   0.000235 -43.299900  -0.001409  -0.003009   6.150570  -4.386080   6.968400  34.161900 -28.355400  40.060400 -30.197400 -40.999600  81.321800  33.501100 -23.138900  38.597600 -32.111500  35.798700  71.757200  47.870900  -0.001338  -0.002472  22.533200  -0.000588  -0.002775  88.996200   4.999170   0.087496  91.423600   0.000400  -0.000745  68.567700   0.001081  -0.000590  89.000000  -0.000876   0.002931 103.611000  -0.001795   0.000531  77.708600   0.000566   0.001655  88.996000  -4.999490  -0.089618  92.809900   0.001485   0.000988  69.607400   0.000343  -0.000783  88.989100 -10.003700  -0.175582 110.000000   0.000408   0.000889  80.001300   0.000612   0.000644  10.958500  10.133100  -0.257599   3.545580  22.460400  12.717200 -13.818300 -12.830200  -3.636100   0.000000   0.000000  -0.000000  11.519600  19.197100  -3.130990   0.604516   1.107890 -17.530400  -4.731290  -6.203550   2.097300  -0.000000   0.000000  -0.000000
-12.274500  88.003500  -7.220960  -4.434030 -15.609500  -1.186160   2.759970   8.192500  -1.801520   5.872370  16.282600  -4.066860   5.663650   0.001758  -0.000108   9.301310   0.003588  -1.398270  -9.144570   2.777440  -0.926975 -70.994200  14.863900  -9.585720  -1.478770  -3.556030 -13.960300   3.270990  -8.112110   2.471960  40.990700  36.409600 -57.678000 -33.732800   0.006162   0.004225 -11.866500   0.006359  -0.003528 -40.669900   1.642350  -1.910440 -33.298000   0.006602  -0.005649 -23.493200   0.006401   0.005204 -29.715400  -1.996220   3.492690 -44.664100   0.008208  -0.008320 -29.746300   0.008627   0.007420 -30.744200  -3.152940   5.283050 -46.334800   0.006465  -0.006178 -30.859000   0.006419   0.003745 -43.190400  -4.217900   4.479820 -65.033400  -0.003499   0.000198 -43.312200  -0.001377  -0.003009   6.159900  -4.415950   6.976390  34.154300 -28.264700  40.032500 -30.280000 -41.083600  81.275100  33.524800 -23.199000  38.637100 -32.147500  35.865100  71.815400  47.854400  -0.001398  -0.002388  22.514800  -0.000628  -0.002854  88.996200   4.999170   0.087496  91.427900   0.000368  -0.000707  68.571000   0.001051  -0.000612  89.000000  -0.000848   0.003034 103.647000  -0.001758   0.000541  77.735400   0.000568   0.001606  88.996000  -4.999460  -0.089623  92.782500   0.001547   0.000991  69.586900   0.000338  -0.000807  88.989200 -10.003600  -0.175576 110.000000   0.000420   0.000888  80.001200   0.000725   0.000584  10.925200  10.189900  -0.239354   3.517140  22.359300  12.793200 -13.805000 -12.800500  -3.643740  -0.000000   0.000000   0.000000  11.470300  19.198600  -3.122670   0.605733   1.106720 -17.533600  -4.711340  -6.219980   2.160380  -0.000000   0.000000   0.000000
